M48
;DRILL file {KiCad 4.0.4-stable} date Monday, October 17, 2016 'PMt' 10:24:30 PM
;FORMAT={2:4/ absolute / inch / suppress trailing zeros}
FMAT,2
INCH,LZ
T1C0.016
T2C0.032
T3C0.035
T4C0.035
T5C0.040
T6C0.040
T7C0.230
%
G90
G05
M72
T1
X043031Y-046339
X04378Y-045945
X05752Y-045787
T2
X059461Y-049173
X060461Y-049173
T3
X035827Y-04685
X035827Y-048425
X037402Y-04685
X037402Y-048425
X064713Y-046713
X064713Y-048287
X066287Y-046713
X066287Y-048287
T4
X044488Y-04685
X044488Y-048819
X056142Y-045669
X056142Y-047638
T5
X034409Y-047638
X036614Y-045433
X036614Y-049843
X038819Y-047638
X063295Y-0475
X0655Y-045295
X0655Y-049705
X067705Y-0475
T6
X047008Y-045157
X047008Y-046157
X047008Y-047157
X047008Y-048157
X047008Y-049157
X047008Y-050157
X051142Y-046024
X051142Y-047024
X051142Y-048024
X051142Y-049024
X053268Y-046063
X053268Y-047063
X053268Y-048063
X053268Y-049063
T7
X041299Y-047598
T0
M30
