G04 #@! TF.FileFunction,Copper,L1,Top,Signal*
%FSLAX46Y46*%
G04 Gerber Fmt 4.6, Leading zero omitted, Abs format (unit mm)*
G04 Created by KiCad (PCBNEW 4.0.4-stable) date Monday, October 17, 2016 'PMt' 10:33:17 PM*
%MOMM*%
%LPD*%
G01*
G04 APERTURE LIST*
%ADD10C,0.100000*%
%ADD11C,1.397000*%
%ADD12R,1.400000X1.400000*%
%ADD13C,1.400000*%
%ADD14R,2.032000X1.727200*%
%ADD15O,2.032000X1.727200*%
%ADD16R,2.650000X0.900000*%
%ADD17R,3.200000X0.900000*%
%ADD18C,6.160000*%
%ADD19C,0.600000*%
%ADD20C,0.250000*%
G04 APERTURE END LIST*
D10*
D11*
X151030000Y-124900000D03*
X153570000Y-124900000D03*
D12*
X113000000Y-119000000D03*
D13*
X113000000Y-124000000D03*
D14*
X119400000Y-114700000D03*
D15*
X119400000Y-117240000D03*
X119400000Y-119780000D03*
X119400000Y-122320000D03*
X119400000Y-124860000D03*
X119400000Y-127400000D03*
D14*
X129900000Y-116900000D03*
D15*
X129900000Y-119440000D03*
X129900000Y-121980000D03*
X129900000Y-124520000D03*
D12*
X142600000Y-121000000D03*
D13*
X142600000Y-116000000D03*
D14*
X135300000Y-117000000D03*
D15*
X135300000Y-119540000D03*
X135300000Y-122080000D03*
X135300000Y-124620000D03*
D16*
X150150000Y-118800000D03*
D17*
X150425000Y-117550000D03*
D16*
X150150000Y-116250000D03*
X150150000Y-115000000D03*
X155900000Y-118800000D03*
X155900000Y-117550000D03*
X155900000Y-116250000D03*
X155900000Y-115000000D03*
D18*
X104900000Y-120900000D03*
D10*
G36*
X164370000Y-121235786D02*
X165784214Y-122650000D01*
X164370000Y-124064214D01*
X162955786Y-122650000D01*
X164370000Y-121235786D01*
X164370000Y-121235786D01*
G37*
G36*
X166955786Y-122650000D02*
X168370000Y-121235786D01*
X169784214Y-122650000D01*
X168370000Y-124064214D01*
X166955786Y-122650000D01*
X166955786Y-122650000D01*
G37*
G36*
X165784214Y-118650000D02*
X164370000Y-120064214D01*
X162955786Y-118650000D01*
X164370000Y-117235786D01*
X165784214Y-118650000D01*
X165784214Y-118650000D01*
G37*
G36*
X168370000Y-120064214D02*
X166955786Y-118650000D01*
X168370000Y-117235786D01*
X169784214Y-118650000D01*
X168370000Y-120064214D01*
X168370000Y-120064214D01*
G37*
G36*
X159770000Y-122650000D02*
X159770000Y-118650000D01*
X161770000Y-119650000D01*
X161770000Y-121650000D01*
X159770000Y-122650000D01*
X159770000Y-122650000D01*
G37*
G36*
X164370000Y-127250000D02*
X165370000Y-125250000D01*
X167370000Y-125250000D01*
X168370000Y-127250000D01*
X164370000Y-127250000D01*
X164370000Y-127250000D01*
G37*
G36*
X170970000Y-121650000D02*
X170970000Y-119650000D01*
X172970000Y-118650000D01*
X172970000Y-122650000D01*
X170970000Y-121650000D01*
X170970000Y-121650000D01*
G37*
G36*
X165370000Y-116050000D02*
X164370000Y-114050000D01*
X168370000Y-114050000D01*
X167370000Y-116050000D01*
X165370000Y-116050000D01*
X165370000Y-116050000D01*
G37*
G36*
X91000000Y-121585786D02*
X92414214Y-123000000D01*
X91000000Y-124414214D01*
X89585786Y-123000000D01*
X91000000Y-121585786D01*
X91000000Y-121585786D01*
G37*
G36*
X93585786Y-123000000D02*
X95000000Y-121585786D01*
X96414214Y-123000000D01*
X95000000Y-124414214D01*
X93585786Y-123000000D01*
X93585786Y-123000000D01*
G37*
G36*
X92414214Y-119000000D02*
X91000000Y-120414214D01*
X89585786Y-119000000D01*
X91000000Y-117585786D01*
X92414214Y-119000000D01*
X92414214Y-119000000D01*
G37*
G36*
X95000000Y-120414214D02*
X93585786Y-119000000D01*
X95000000Y-117585786D01*
X96414214Y-119000000D01*
X95000000Y-120414214D01*
X95000000Y-120414214D01*
G37*
G36*
X86400000Y-123000000D02*
X86400000Y-119000000D01*
X88400000Y-120000000D01*
X88400000Y-122000000D01*
X86400000Y-123000000D01*
X86400000Y-123000000D01*
G37*
G36*
X91000000Y-127600000D02*
X92000000Y-125600000D01*
X94000000Y-125600000D01*
X95000000Y-127600000D01*
X91000000Y-127600000D01*
X91000000Y-127600000D01*
G37*
G36*
X97600000Y-122000000D02*
X97600000Y-120000000D01*
X99600000Y-119000000D01*
X99600000Y-123000000D01*
X97600000Y-122000000D01*
X97600000Y-122000000D01*
G37*
G36*
X92000000Y-116400000D02*
X91000000Y-114400000D01*
X95000000Y-114400000D01*
X94000000Y-116400000D01*
X92000000Y-116400000D01*
X92000000Y-116400000D01*
G37*
D19*
X109300000Y-117700000D03*
X111200000Y-116700000D03*
X146100000Y-116300000D03*
D20*
X93000000Y-115400000D02*
X96200000Y-115400000D01*
X98600000Y-117800000D02*
X98600000Y-121000000D01*
X96200000Y-115400000D02*
X98600000Y-117800000D01*
X93000000Y-115400000D02*
X90700000Y-115400000D01*
X87400000Y-118700000D02*
X87400000Y-121000000D01*
X90700000Y-115400000D02*
X87400000Y-118700000D01*
X87400000Y-121000000D02*
X87400000Y-124200000D01*
X87400000Y-124200000D02*
X89800000Y-126600000D01*
X89800000Y-126600000D02*
X93000000Y-126600000D01*
X168370000Y-122650000D02*
X164370000Y-122650000D01*
X164370000Y-122650000D02*
X164370000Y-118650000D01*
X129900000Y-116900000D02*
X129900000Y-115400000D01*
X159420000Y-113700000D02*
X164370000Y-118650000D01*
X131600000Y-113700000D02*
X159420000Y-113700000D01*
X129900000Y-115400000D02*
X131600000Y-113700000D01*
X168370000Y-122650000D02*
X168370000Y-118650000D01*
X168370000Y-118650000D02*
X164370000Y-118650000D01*
X109300000Y-116700000D02*
X109300000Y-117700000D01*
X109300000Y-116700000D02*
X109300000Y-115000000D01*
X120000000Y-114700000D02*
X109300000Y-115000000D01*
X116940000Y-117540000D02*
X120000000Y-117240000D01*
X116100000Y-116700000D02*
X116940000Y-117540000D01*
X111200000Y-116700000D02*
X116100000Y-116700000D01*
X151030000Y-124900000D02*
X148900000Y-124900000D01*
X127400000Y-124480000D02*
X129900000Y-121980000D01*
X127400000Y-126700000D02*
X127400000Y-124480000D01*
X128500000Y-127800000D02*
X127400000Y-126700000D01*
X146000000Y-127800000D02*
X128500000Y-127800000D01*
X148900000Y-124900000D02*
X146000000Y-127800000D01*
X153570000Y-124900000D02*
X153570000Y-124670000D01*
X153570000Y-124670000D02*
X152200000Y-123300000D01*
X152200000Y-123300000D02*
X148800000Y-123300000D01*
X148800000Y-123300000D02*
X145200000Y-126900000D01*
X145200000Y-126900000D02*
X132280000Y-126900000D01*
X132280000Y-126900000D02*
X129900000Y-124520000D01*
X146150000Y-116250000D02*
X150350000Y-116250000D01*
X146100000Y-116300000D02*
X146150000Y-116250000D01*
X135300000Y-122080000D02*
X137720000Y-122080000D01*
X140800000Y-117800000D02*
X142600000Y-116000000D01*
X140800000Y-119000000D02*
X140800000Y-117800000D01*
X137720000Y-122080000D02*
X140800000Y-119000000D01*
X155700000Y-118800000D02*
X155700000Y-117550000D01*
X155700000Y-117550000D02*
X150350000Y-117550000D01*
X150350000Y-117550000D02*
X150200000Y-117400000D01*
X150200000Y-117400000D02*
X144000000Y-117400000D01*
X144000000Y-117400000D02*
X142600000Y-116000000D01*
X150350000Y-115000000D02*
X147300000Y-115000000D01*
X137800000Y-114500000D02*
X135300000Y-117000000D01*
X146800000Y-114500000D02*
X137800000Y-114500000D01*
X147300000Y-115000000D02*
X146800000Y-114500000D01*
X155700000Y-116250000D02*
X157950000Y-116250000D01*
X144380000Y-124620000D02*
X135300000Y-124620000D01*
X146600000Y-122400000D02*
X144380000Y-124620000D01*
X156900000Y-122400000D02*
X146600000Y-122400000D01*
X158100000Y-121200000D02*
X156900000Y-122400000D01*
X158100000Y-116400000D02*
X158100000Y-121200000D01*
X157950000Y-116250000D02*
X158100000Y-116400000D01*
M02*
